{"title":"John Carter 2012 R6 WEBSCR XViD DTRG","uid":7174174,"size":2066229766,"categoryP":"video","categoryS":"movies","magnet":"?xt=urn:btih:2065eca6b64f1447daf7ed2a658351ef1e072a7e&amp;dn=John+Carter+2012+R6+WEBSCR+XViD+DTRG&amp;tr=udp%3A%2F%2Ftracker.openbittorrent.com%3A80&amp;tr=udp%3A%2F%2Fopen.demonii.com%3A1337&amp;tr=udp%3A%2F%2Ftracker.coppersurfer.tk%3A6969&amp;tr=udp%3A%2F%2Fexodus.desync.com%3A6969","seeders":0,"leechers":1,"uploader":"MANTESH","files":3,"time":1334016994,"description":"[img]http://img853.imageshack.us/img853/9657/0vzcl.jpg[/img]\n\n[b][code]\n\nFormat : AVI\nFormat/Info : Audio Video Interleave\nFile size : 1.91 GiB\nDuration : 2h 11mn\nOverall bit rate : 2 071 Kbps\nWriting library : VirtualDub build 32842/release\n\nVideo\nID : 0\nFormat : MPEG-4 Visual\nFormat profile : Advanced Simple@L5\nFormat settings, BVOP : 2\nFormat settings, QPel : No\nFormat settings, GMC : No warppoints\nFormat settings, Matrix : Default (H.263)\nMuxing mode : Packed bitstream\nCodec ID : XVID\nCodec ID/Hint : XviD\nDuration : 2h 11mn\nBit rate : 1 611 Kbps\nWidth : 720 pixels\nHeight : 304 pixels\nDisplay aspect ratio : 2.35:1\nFrame rate : 29.970 fps\nColor space : YUV\nChroma subsampling : 4:2:0\nBit depth : 8 bits\nScan type : Progressive\nCompression mode : Lossy\nBits/(Pixel*Frame) : 0.246\nStream size : 1.48 GiB (78%)\nWriting library : XviD 64\n\nAudio\nID : 1\nFormat : AC-3\nFormat/Info : Audio Coding 3\nMode extension : CM (complete main)\nFormat settings, Endianness : Big\nCodec ID : 2000\nDuration : 2h 11mn\nBit rate mode : Constant\nBit rate : 448 Kbps\nChannel(s) : 2 channels\nChannel positions : Front: L R\nSampling rate : 48.0 KHz\nBit depth : 16 bits\nCompression mode : Lossy\nStream size : 423 MiB (22%)\nAlignment : Aligned on interleaves\nInterleave, duration : 33 ms (1.00 video frame)\nInterleave, preload duration : 512 ms\n\n\n\n\n\n\n\n &lt;a href=&quot;\nhttp://www.imdb.com/title/tt0401729/&quot; rel=&quot;nofollow&quot; target=&quot;_NEW&quot;&gt;\nhttp://www.imdb.com/title/tt0401729/&lt;/a&gt;\n\n\n\n\n\n\nRatings: 7.0/10 from 29,917 users Metascore: 51/100 \nReviews: 381 user | 317 critic | 42 from Metacritic.com\n\nTransplanted to Mars, a Civil War vet discovers a lush planet inhabited by 12-foot tall barbarians. Finding himself a prisoner of these creatures, he escapes, only to encounter a princess who is in desperate need of a savior.\n\nDirector:\nAndrew Stanton\nWriters:\nAndrew Stanton (screenplay), Mark Andrews (screenplay), and 2 more credits Â»\nStars:\nTaylor Kitsch, Lynn Collins and Willem Dafoe \n\n\n\n\n[/code][/b]\n\n\n[img]http://img85.imageshack.us/img85/3742/vlcsnap2012041007h57m58.png[/img]\n[img]http://img138.imageshack.us/img138/1984/vlcsnap2012041007h58m52.png[/img]\n[img]http://img826.imageshack.us/img826/2651/vlcsnap2012041008h28m14.png[/img]\n\n\n\n","torrent":{"xt":"urn:btih:2065eca6b64f1447daf7ed2a658351ef1e072a7e","amp;dn":"John+Carter+2012+R6+WEBSCR+XViD+DTRG","amp;tr":["udp%3A%2F%2Ftracker.openbittorrent.com%3A80","udp%3A%2F%2Fopen.demonii.com%3A1337","udp%3A%2F%2Ftracker.coppersurfer.tk%3A6969","udp%3A%2F%2Fexodus.desync.com%3A6969"],"infoHash":"2065eca6b64f1447daf7ed2a658351ef1e072a7e","infoHashBuffer":{"type":"Buffer","data":[32,101,236,166,182,79,20,71,218,247,237,42,101,131,81,239,30,7,42,126]},"announce":[],"urlList":[]}}